<mxfile host="app.diagrams.net" modified="2020-11-12T00:54:23.923Z" agent="5.0 (Windows NT 10.0; Win64; x64) AppleWebKit/537.36 (KHTML, like Gecko) Chrome/86.0.4240.183 Safari/537.36" etag="ocX3Pt3ZweMpuJGdTB26" version="13.9.6" type="github">
  <diagram id="-2hV0M8G9xLFR0SR-_-U" name="Page-1">
    <mxGraphModel dx="2249" dy="762" grid="0" gridSize="10" guides="1" tooltips="1" connect="1" arrows="1" fold="1" page="1" pageScale="1" pageWidth="827" pageHeight="1169" background="#ffffff" math="0" shadow="0">
      <root>
        <mxCell id="0" />
        <mxCell id="1" parent="0" />
        <mxCell id="L6xL-HyGedE4mQC496hB-6" style="edgeStyle=orthogonalEdgeStyle;rounded=0;orthogonalLoop=1;jettySize=auto;html=1;entryX=0;entryY=0.5;entryDx=0;entryDy=0;" edge="1" parent="1" source="RrE3iOBBxHXa1KL4GIw2-1" target="RrE3iOBBxHXa1KL4GIw2-37">
          <mxGeometry relative="1" as="geometry" />
        </mxCell>
        <mxCell id="L6xL-HyGedE4mQC496hB-13" style="edgeStyle=orthogonalEdgeStyle;rounded=0;orthogonalLoop=1;jettySize=auto;html=1;entryX=0;entryY=0.5;entryDx=0;entryDy=0;" edge="1" parent="1" source="RrE3iOBBxHXa1KL4GIw2-1" target="L6xL-HyGedE4mQC496hB-12">
          <mxGeometry relative="1" as="geometry" />
        </mxCell>
        <mxCell id="RrE3iOBBxHXa1KL4GIw2-1" value="SINCRONIZACIÓN DEL FORMULARIO LEVANTAMIENTO CATASTRAL" style="rounded=0;whiteSpace=wrap;html=1;" parent="1" vertex="1">
          <mxGeometry x="-254" y="297" width="195" height="60" as="geometry" />
        </mxCell>
        <mxCell id="L6xL-HyGedE4mQC496hB-15" style="edgeStyle=orthogonalEdgeStyle;rounded=0;orthogonalLoop=1;jettySize=auto;html=1;entryX=0;entryY=0.5;entryDx=0;entryDy=0;" edge="1" parent="1" source="RrE3iOBBxHXa1KL4GIw2-3" target="RrE3iOBBxHXa1KL4GIw2-5">
          <mxGeometry relative="1" as="geometry" />
        </mxCell>
        <mxCell id="RrE3iOBBxHXa1KL4GIw2-3" value="EJECUCIÓN CONTROL DE CALIDAD SOBRE LOS DATOS FORMULARIO LEVANTAMIENTO CATASTRAL - COMPONENTE FÍSICO\CALIFICATIVO DIRECTAMENTE EN LA PLATAFORMA" style="rounded=0;whiteSpace=wrap;html=1;" parent="1" vertex="1">
          <mxGeometry x="1511" y="500" width="310" height="85" as="geometry" />
        </mxCell>
        <mxCell id="L6xL-HyGedE4mQC496hB-16" style="edgeStyle=orthogonalEdgeStyle;rounded=0;orthogonalLoop=1;jettySize=auto;html=1;" edge="1" parent="1" source="RrE3iOBBxHXa1KL4GIw2-5" target="L6xL-HyGedE4mQC496hB-3">
          <mxGeometry relative="1" as="geometry" />
        </mxCell>
        <mxCell id="L6xL-HyGedE4mQC496hB-43" style="edgeStyle=orthogonalEdgeStyle;rounded=0;orthogonalLoop=1;jettySize=auto;html=1;entryX=0.5;entryY=0;entryDx=0;entryDy=0;" edge="1" parent="1" source="RrE3iOBBxHXa1KL4GIw2-5" target="L6xL-HyGedE4mQC496hB-29">
          <mxGeometry relative="1" as="geometry">
            <Array as="points">
              <mxPoint x="1954" y="421" />
              <mxPoint x="2796" y="421" />
            </Array>
          </mxGeometry>
        </mxCell>
        <mxCell id="RrE3iOBBxHXa1KL4GIw2-5" value="¿Los datos cumplen &lt;br style=&quot;font-size: 11px;&quot;&gt;la validación de calidad a nivel físico (CALIFICACIÓN&lt;br style=&quot;font-size: 11px;&quot;&gt;CONVENCIONAL\NO&lt;br style=&quot;font-size: 11px;&quot;&gt;CONVENCIONAL?" style="rhombus;whiteSpace=wrap;html=1;fontSize=11;" parent="1" vertex="1">
          <mxGeometry x="1878" y="468" width="152" height="149" as="geometry" />
        </mxCell>
        <mxCell id="RrE3iOBBxHXa1KL4GIw2-8" value="&lt;b&gt;PARÁMETROS GENERALES ASEGURAMIENTO CALIDAD NIVEL JURÍDICO&lt;/b&gt;&lt;br&gt;&lt;div style=&quot;text-align: justify&quot;&gt;&lt;span&gt;a. Corroboración y MODIFICACIÓN\ACTUALIZACIÓN\NUEVO REGISTRO teniendo en cuenta la comparación de datos por predio con respecto a la información del VUR.&lt;/span&gt;&lt;/div&gt;&lt;div style=&quot;text-align: justify&quot;&gt;&lt;span&gt;b. Validación de datos con respecto a los soportes fotográficos capturados durante el diligenciamiento del Formulario.&lt;/span&gt;&lt;/div&gt;&lt;div style=&quot;text-align: justify&quot;&gt;&lt;span&gt;c. Validación de la calidad (resolución) del registro fotográfico capturado durante el levantamiento del formulario&lt;/span&gt;&lt;/div&gt;&lt;div style=&quot;text-align: justify&quot;&gt;&lt;span&gt;d. Verificación de datos a nivel de forma (ortografía, capitalización, entre otros).&lt;/span&gt;&lt;/div&gt;&lt;div style=&quot;text-align: justify&quot;&gt;&lt;span&gt;e. Incorporación de nuevos registros, por predio\formulario tras validar los registros capturados por el formulario con los cruces de información CATASTRO\REGISTRO.&lt;/span&gt;&lt;/div&gt;&lt;div style=&quot;text-align: justify&quot;&gt;&lt;span&gt;f. INCORPORACIÓN de archivos fotográficos post diligenciamiento del Formulario en campo.&lt;/span&gt;&lt;/div&gt;" style="text;html=1;strokeColor=none;fillColor=none;align=center;verticalAlign=middle;whiteSpace=wrap;rounded=0;" parent="1" vertex="1">
          <mxGeometry x="-17" y="1047" width="340" height="242" as="geometry" />
        </mxCell>
        <mxCell id="RrE3iOBBxHXa1KL4GIw2-9" value="&lt;b&gt;PARÁMETROS GENERALES ASEGURAMIENTO CALIDAD NIVEL FÍSICO\CLASIFICACIÓN&lt;/b&gt;&lt;br&gt;&lt;div style=&quot;text-align: justify&quot;&gt;&lt;span&gt;a. Revisión de los datos asociados a la calificación de las construcciones con respecto a los registros fotográficos.&lt;br&gt;&lt;/span&gt;&lt;/div&gt;&lt;div style=&quot;text-align: justify&quot;&gt;&lt;span&gt;b. Revisión de los datos asociados a la calificación CONVENCIONAL\NO CONVENCIONAL para las unidades de construcción capturadas en campo con respecto a lo visualizado en los registros fotográficos.&lt;/span&gt;&lt;/div&gt;&lt;div style=&quot;text-align: justify&quot;&gt;&lt;span&gt;c. Validación de calidad (resolución) sobre los insumos fotográficos capturados durante el diligenciamiento del Formulario.&lt;/span&gt;&lt;/div&gt;&lt;div style=&quot;text-align: justify&quot;&gt;&lt;span&gt;d. Completitud de registros no capturados durante la captura del formulario de levantamiento catastral.&lt;/span&gt;&lt;/div&gt;" style="text;html=1;strokeColor=none;fillColor=none;align=center;verticalAlign=middle;whiteSpace=wrap;rounded=0;" parent="1" vertex="1">
          <mxGeometry x="-728" y="1047" width="340" height="199" as="geometry" />
        </mxCell>
        <mxCell id="L6xL-HyGedE4mQC496hB-9" style="edgeStyle=orthogonalEdgeStyle;rounded=0;orthogonalLoop=1;jettySize=auto;html=1;" edge="1" parent="1" source="RrE3iOBBxHXa1KL4GIw2-10" target="L6xL-HyGedE4mQC496hB-5">
          <mxGeometry relative="1" as="geometry" />
        </mxCell>
        <mxCell id="L6xL-HyGedE4mQC496hB-22" style="edgeStyle=orthogonalEdgeStyle;rounded=0;orthogonalLoop=1;jettySize=auto;html=1;entryX=0.004;entryY=0.635;entryDx=0;entryDy=0;entryPerimeter=0;" edge="1" parent="1" source="RrE3iOBBxHXa1KL4GIw2-10" target="L6xL-HyGedE4mQC496hB-20">
          <mxGeometry relative="1" as="geometry">
            <Array as="points">
              <mxPoint x="692" y="552" />
            </Array>
          </mxGeometry>
        </mxCell>
        <mxCell id="RrE3iOBBxHXa1KL4GIw2-10" value="¿Los datos &lt;br&gt;cumplen con la posición &lt;br&gt;espacial?" style="rhombus;whiteSpace=wrap;html=1;" parent="1" vertex="1">
          <mxGeometry x="633" y="357" width="118" height="116" as="geometry" />
        </mxCell>
        <mxCell id="RrE3iOBBxHXa1KL4GIw2-11" value="&lt;b&gt;PARÁMETROS GENERALES ASEGURAMIENTO CALIDAD NIVEL POSICIONAL&lt;/b&gt;&lt;br&gt;&lt;div style=&quot;text-align: justify&quot;&gt;&lt;span&gt;a. Coordenada geográfica calculada por formulario&lt;/span&gt;&lt;/div&gt;&lt;div style=&quot;text-align: justify&quot;&gt;&lt;span&gt;b. Coordenada posicionada como mínimo dentro de la Unidad de Intervención&lt;/span&gt;&lt;/div&gt;&lt;div style=&quot;text-align: justify&quot;&gt;c. Se corrobora el correcto diligenciamiento del Identificador del formulario&lt;/div&gt;" style="text;html=1;strokeColor=none;fillColor=none;align=center;verticalAlign=middle;whiteSpace=wrap;rounded=0;" parent="1" vertex="1">
          <mxGeometry x="-362.5" y="1067" width="340" height="86" as="geometry" />
        </mxCell>
        <mxCell id="L6xL-HyGedE4mQC496hB-39" style="edgeStyle=orthogonalEdgeStyle;rounded=0;orthogonalLoop=1;jettySize=auto;html=1;entryX=1;entryY=0.5;entryDx=0;entryDy=0;" edge="1" parent="1" source="RrE3iOBBxHXa1KL4GIw2-17" target="L6xL-HyGedE4mQC496hB-38">
          <mxGeometry relative="1" as="geometry">
            <Array as="points">
              <mxPoint x="3750" y="717" />
            </Array>
          </mxGeometry>
        </mxCell>
        <mxCell id="L6xL-HyGedE4mQC496hB-41" style="edgeStyle=orthogonalEdgeStyle;rounded=0;orthogonalLoop=1;jettySize=auto;html=1;entryX=0;entryY=0.5;entryDx=0;entryDy=0;" edge="1" parent="1" source="RrE3iOBBxHXa1KL4GIw2-17" target="RrE3iOBBxHXa1KL4GIw2-40">
          <mxGeometry relative="1" as="geometry" />
        </mxCell>
        <mxCell id="RrE3iOBBxHXa1KL4GIw2-17" value="¿La validación jurídica&lt;br&gt;garantiza la fidelidad de &lt;br&gt;los datos?" style="rhombus;whiteSpace=wrap;html=1;" parent="1" vertex="1">
          <mxGeometry x="3680" y="475.5" width="140" height="134" as="geometry" />
        </mxCell>
        <mxCell id="RrE3iOBBxHXa1KL4GIw2-26" value="NO" style="text;html=1;strokeColor=none;fillColor=none;align=center;verticalAlign=middle;whiteSpace=wrap;rounded=0;fontSize=11;" parent="1" vertex="1">
          <mxGeometry x="3713" y="604" width="40" height="20" as="geometry" />
        </mxCell>
        <mxCell id="L6xL-HyGedE4mQC496hB-33" style="edgeStyle=orthogonalEdgeStyle;rounded=0;orthogonalLoop=1;jettySize=auto;html=1;" edge="1" parent="1" source="RrE3iOBBxHXa1KL4GIw2-37" target="L6xL-HyGedE4mQC496hB-31">
          <mxGeometry relative="1" as="geometry" />
        </mxCell>
        <mxCell id="RrE3iOBBxHXa1KL4GIw2-37" value="DESCARGA DE RECURSOS FOTOGRÁFICOS PARA EN ANÁLSIS PRELIMINAR DEL EXPERTO JURÍDICO" style="rounded=0;whiteSpace=wrap;html=1;" parent="1" vertex="1">
          <mxGeometry x="48" y="217" width="3252" height="60" as="geometry" />
        </mxCell>
        <mxCell id="RrE3iOBBxHXa1KL4GIw2-57" style="edgeStyle=orthogonalEdgeStyle;rounded=0;orthogonalLoop=1;jettySize=auto;html=1;entryX=0;entryY=0.5;entryDx=0;entryDy=0;entryPerimeter=0;fontSize=11;" parent="1" source="RrE3iOBBxHXa1KL4GIw2-40" target="RrE3iOBBxHXa1KL4GIw2-56" edge="1">
          <mxGeometry relative="1" as="geometry" />
        </mxCell>
        <mxCell id="RrE3iOBBxHXa1KL4GIw2-40" value="SE PARAMETRIZA EL FORMULARIO COMO -APROBADO- (O SIMILAR)" style="rounded=0;whiteSpace=wrap;html=1;fontSize=11;" parent="1" vertex="1">
          <mxGeometry x="3902" y="512.5" width="205" height="60" as="geometry" />
        </mxCell>
        <mxCell id="RrE3iOBBxHXa1KL4GIw2-50" value="SI" style="text;html=1;strokeColor=none;fillColor=none;align=center;verticalAlign=middle;whiteSpace=wrap;rounded=0;fontSize=11;" parent="1" vertex="1">
          <mxGeometry x="688" y="471" width="40" height="20" as="geometry" />
        </mxCell>
        <mxCell id="RrE3iOBBxHXa1KL4GIw2-54" style="edgeStyle=orthogonalEdgeStyle;rounded=0;orthogonalLoop=1;jettySize=auto;html=1;entryX=0;entryY=0.5;entryDx=0;entryDy=0;fontSize=11;" parent="1" source="RrE3iOBBxHXa1KL4GIw2-53" target="RrE3iOBBxHXa1KL4GIw2-1" edge="1">
          <mxGeometry relative="1" as="geometry" />
        </mxCell>
        <mxCell id="RrE3iOBBxHXa1KL4GIw2-53" value="FINALIZA LEVANTAMIENTO&amp;nbsp;&lt;br&gt;FORMULARIO" style="ellipse;whiteSpace=wrap;html=1;aspect=fixed;fontSize=11;" parent="1" vertex="1">
          <mxGeometry x="-416" y="278" width="98" height="98" as="geometry" />
        </mxCell>
        <mxCell id="RrE3iOBBxHXa1KL4GIw2-59" style="edgeStyle=orthogonalEdgeStyle;rounded=0;orthogonalLoop=1;jettySize=auto;html=1;fontSize=11;" parent="1" source="RrE3iOBBxHXa1KL4GIw2-56" target="RrE3iOBBxHXa1KL4GIw2-58" edge="1">
          <mxGeometry relative="1" as="geometry" />
        </mxCell>
        <mxCell id="RrE3iOBBxHXa1KL4GIw2-56" value="SE INCORPORAN LOS DATOS PARA LAS ANALÍTICAS Y CRUCES CON OTROS COMPONENTES" style="shape=cylinder3;whiteSpace=wrap;html=1;boundedLbl=1;backgroundOutline=1;size=15;fontSize=11;" parent="1" vertex="1">
          <mxGeometry x="4231" y="478.25" width="124" height="128.5" as="geometry" />
        </mxCell>
        <mxCell id="RrE3iOBBxHXa1KL4GIw2-58" value="FIN PROCESO" style="ellipse;whiteSpace=wrap;html=1;aspect=fixed;fontSize=11;" parent="1" vertex="1">
          <mxGeometry x="4471" y="502.5" width="80" height="80" as="geometry" />
        </mxCell>
        <mxCell id="L6xL-HyGedE4mQC496hB-8" style="edgeStyle=orthogonalEdgeStyle;rounded=0;orthogonalLoop=1;jettySize=auto;html=1;entryX=0;entryY=0.5;entryDx=0;entryDy=0;" edge="1" parent="1" source="L6xL-HyGedE4mQC496hB-1" target="RrE3iOBBxHXa1KL4GIw2-10">
          <mxGeometry relative="1" as="geometry" />
        </mxCell>
        <mxCell id="L6xL-HyGedE4mQC496hB-1" value="DESCARGA FORMATO SHAPEFILE- DE LAS COORDENDAS ASOCIADAS AL PK DE LOS FORMULARIOS SINCRONIZADOS" style="rounded=0;whiteSpace=wrap;html=1;" vertex="1" parent="1">
          <mxGeometry x="316" y="385" width="259" height="60" as="geometry" />
        </mxCell>
        <mxCell id="L6xL-HyGedE4mQC496hB-17" style="edgeStyle=orthogonalEdgeStyle;rounded=0;orthogonalLoop=1;jettySize=auto;html=1;" edge="1" parent="1" source="L6xL-HyGedE4mQC496hB-3" target="L6xL-HyGedE4mQC496hB-4">
          <mxGeometry relative="1" as="geometry" />
        </mxCell>
        <mxCell id="L6xL-HyGedE4mQC496hB-3" value="GENERACIÓN AUTOMÁTICA DE -LISTA DE CHEQUEO- CON LAS OPCIONES DE MEJORA REQUERIDAS" style="rounded=0;whiteSpace=wrap;html=1;" vertex="1" parent="1">
          <mxGeometry x="2081" y="502.5" width="257" height="80" as="geometry" />
        </mxCell>
        <mxCell id="L6xL-HyGedE4mQC496hB-19" style="edgeStyle=orthogonalEdgeStyle;rounded=0;orthogonalLoop=1;jettySize=auto;html=1;" edge="1" parent="1" source="L6xL-HyGedE4mQC496hB-4" target="L6xL-HyGedE4mQC496hB-18">
          <mxGeometry relative="1" as="geometry" />
        </mxCell>
        <mxCell id="L6xL-HyGedE4mQC496hB-4" value="ASIGNACIÓN Y CARGA EN BANDEJA DE USUARIO NOMBRADO PARA LA EJECUCIÓN DE LOS PROCESOS DE CORRECCIÓN" style="rounded=0;whiteSpace=wrap;html=1;" vertex="1" parent="1">
          <mxGeometry x="2076" y="637" width="267" height="89" as="geometry" />
        </mxCell>
        <mxCell id="L6xL-HyGedE4mQC496hB-21" style="edgeStyle=orthogonalEdgeStyle;rounded=0;orthogonalLoop=1;jettySize=auto;html=1;entryX=0;entryY=0.25;entryDx=0;entryDy=0;" edge="1" parent="1" source="L6xL-HyGedE4mQC496hB-5" target="L6xL-HyGedE4mQC496hB-20">
          <mxGeometry relative="1" as="geometry" />
        </mxCell>
        <mxCell id="L6xL-HyGedE4mQC496hB-5" value="MODIFICACIÓN DE LA POSICIÓN Y\O REGISTRO DEL PK DENTRO DE LA PLATAFORMA TECNOLÓGICA" style="rounded=0;whiteSpace=wrap;html=1;" vertex="1" parent="1">
          <mxGeometry x="809" y="385" width="249" height="60" as="geometry" />
        </mxCell>
        <mxCell id="L6xL-HyGedE4mQC496hB-14" style="edgeStyle=orthogonalEdgeStyle;rounded=0;orthogonalLoop=1;jettySize=auto;html=1;entryX=0;entryY=0.5;entryDx=0;entryDy=0;" edge="1" parent="1" source="L6xL-HyGedE4mQC496hB-12" target="L6xL-HyGedE4mQC496hB-1">
          <mxGeometry relative="1" as="geometry" />
        </mxCell>
        <mxCell id="L6xL-HyGedE4mQC496hB-12" value="CAMBIO DE ESTADO DEL Frm A -EN REVISIÓN COMPONENTE SIG- (CARGA EN BANDEJA CORRESPONDIENTE)" style="rounded=0;whiteSpace=wrap;html=1;" vertex="1" parent="1">
          <mxGeometry x="48" y="385" width="201" height="60" as="geometry" />
        </mxCell>
        <mxCell id="L6xL-HyGedE4mQC496hB-25" style="edgeStyle=orthogonalEdgeStyle;rounded=0;orthogonalLoop=1;jettySize=auto;html=1;entryX=0.5;entryY=0;entryDx=0;entryDy=0;" edge="1" parent="1" source="L6xL-HyGedE4mQC496hB-18" target="L6xL-HyGedE4mQC496hB-24">
          <mxGeometry relative="1" as="geometry" />
        </mxCell>
        <mxCell id="L6xL-HyGedE4mQC496hB-18" value="EJECUCIÓN DE OPCIONES DE MEJORA DENTRO DE LA PLATAFORMA" style="rounded=0;whiteSpace=wrap;html=1;" vertex="1" parent="1">
          <mxGeometry x="2076" y="781" width="267" height="89" as="geometry" />
        </mxCell>
        <mxCell id="L6xL-HyGedE4mQC496hB-23" style="edgeStyle=orthogonalEdgeStyle;rounded=0;orthogonalLoop=1;jettySize=auto;html=1;entryX=0;entryY=0.5;entryDx=0;entryDy=0;" edge="1" parent="1" source="L6xL-HyGedE4mQC496hB-20" target="RrE3iOBBxHXa1KL4GIw2-3">
          <mxGeometry relative="1" as="geometry" />
        </mxCell>
        <mxCell id="L6xL-HyGedE4mQC496hB-20" value="CAMBIO DE ESTADO DEL Frm -REVISIÓN COMPONENTE FÍSICO- (CARGA EN BANDEJA CORRESPONDIENTE)" style="rounded=0;whiteSpace=wrap;html=1;" vertex="1" parent="1">
          <mxGeometry x="1176" y="507.25" width="242" height="70.5" as="geometry" />
        </mxCell>
        <mxCell id="L6xL-HyGedE4mQC496hB-27" style="edgeStyle=orthogonalEdgeStyle;rounded=0;orthogonalLoop=1;jettySize=auto;html=1;entryX=0.5;entryY=1;entryDx=0;entryDy=0;" edge="1" parent="1" source="L6xL-HyGedE4mQC496hB-24" target="L6xL-HyGedE4mQC496hB-26">
          <mxGeometry relative="1" as="geometry" />
        </mxCell>
        <mxCell id="L6xL-HyGedE4mQC496hB-24" value="ENVÍO DE RESULTADOS A BANDEJA CORRESPONDIENTE" style="rounded=0;whiteSpace=wrap;html=1;" vertex="1" parent="1">
          <mxGeometry x="2074.5" y="925" width="270" height="60" as="geometry" />
        </mxCell>
        <mxCell id="L6xL-HyGedE4mQC496hB-28" style="edgeStyle=orthogonalEdgeStyle;rounded=0;orthogonalLoop=1;jettySize=auto;html=1;entryX=1;entryY=0.5;entryDx=0;entryDy=0;" edge="1" parent="1" source="L6xL-HyGedE4mQC496hB-26" target="L6xL-HyGedE4mQC496hB-4">
          <mxGeometry relative="1" as="geometry" />
        </mxCell>
        <mxCell id="L6xL-HyGedE4mQC496hB-30" style="edgeStyle=orthogonalEdgeStyle;rounded=0;orthogonalLoop=1;jettySize=auto;html=1;entryX=0;entryY=0.5;entryDx=0;entryDy=0;" edge="1" parent="1" source="L6xL-HyGedE4mQC496hB-26" target="L6xL-HyGedE4mQC496hB-29">
          <mxGeometry relative="1" as="geometry" />
        </mxCell>
        <mxCell id="L6xL-HyGedE4mQC496hB-26" value="¿Se validan&lt;br&gt;las observaciones&lt;br&gt;de la lista de chequeo de&lt;br&gt;forma&lt;br&gt;satisfactoria?" style="rhombus;whiteSpace=wrap;html=1;" vertex="1" parent="1">
          <mxGeometry x="2457" y="475.5" width="141" height="134" as="geometry" />
        </mxCell>
        <mxCell id="L6xL-HyGedE4mQC496hB-32" style="edgeStyle=orthogonalEdgeStyle;rounded=0;orthogonalLoop=1;jettySize=auto;html=1;" edge="1" parent="1" source="L6xL-HyGedE4mQC496hB-29" target="L6xL-HyGedE4mQC496hB-31">
          <mxGeometry relative="1" as="geometry" />
        </mxCell>
        <mxCell id="L6xL-HyGedE4mQC496hB-29" value="CAMBIO DE ESTADO DEL Frm -REVISIÓN COMPONENTE JURÍDICO- (CARGA EN BANDEJA CORRESPONDIENTE)" style="rounded=0;whiteSpace=wrap;html=1;" vertex="1" parent="1">
          <mxGeometry x="2675" y="507.25" width="242" height="70.5" as="geometry" />
        </mxCell>
        <mxCell id="L6xL-HyGedE4mQC496hB-35" style="edgeStyle=orthogonalEdgeStyle;rounded=0;orthogonalLoop=1;jettySize=auto;html=1;entryX=0;entryY=0.5;entryDx=0;entryDy=0;" edge="1" parent="1" source="L6xL-HyGedE4mQC496hB-31" target="L6xL-HyGedE4mQC496hB-34">
          <mxGeometry relative="1" as="geometry" />
        </mxCell>
        <mxCell id="L6xL-HyGedE4mQC496hB-31" value="ACTUALIZACIÓN DEL FORMULARIO CON DATOS JURÍDICOS" style="rounded=0;whiteSpace=wrap;html=1;" vertex="1" parent="1">
          <mxGeometry x="2984" y="500" width="310" height="85" as="geometry" />
        </mxCell>
        <mxCell id="L6xL-HyGedE4mQC496hB-36" style="edgeStyle=orthogonalEdgeStyle;rounded=0;orthogonalLoop=1;jettySize=auto;html=1;entryX=0;entryY=0.5;entryDx=0;entryDy=0;" edge="1" parent="1" source="L6xL-HyGedE4mQC496hB-34" target="RrE3iOBBxHXa1KL4GIw2-17">
          <mxGeometry relative="1" as="geometry" />
        </mxCell>
        <mxCell id="L6xL-HyGedE4mQC496hB-34" value="ENVÍO DE RESULTADOS A BANDEJA CORRESPONDIENTE" style="rounded=0;whiteSpace=wrap;html=1;" vertex="1" parent="1">
          <mxGeometry x="3354" y="512.5" width="270" height="60" as="geometry" />
        </mxCell>
        <mxCell id="L6xL-HyGedE4mQC496hB-40" style="edgeStyle=orthogonalEdgeStyle;rounded=0;orthogonalLoop=1;jettySize=auto;html=1;entryX=0.468;entryY=0.988;entryDx=0;entryDy=0;entryPerimeter=0;" edge="1" parent="1" source="L6xL-HyGedE4mQC496hB-38" target="L6xL-HyGedE4mQC496hB-31">
          <mxGeometry relative="1" as="geometry" />
        </mxCell>
        <mxCell id="L6xL-HyGedE4mQC496hB-38" value="REASIGNACIÓN A BANDEJA CORRESPONDIENTE" style="rounded=0;whiteSpace=wrap;html=1;" vertex="1" parent="1">
          <mxGeometry x="3298" y="687" width="220" height="60" as="geometry" />
        </mxCell>
        <mxCell id="L6xL-HyGedE4mQC496hB-42" value="SI" style="text;html=1;strokeColor=none;fillColor=none;align=center;verticalAlign=middle;whiteSpace=wrap;rounded=0;fontSize=11;" vertex="1" parent="1">
          <mxGeometry x="1947" y="451" width="40" height="20" as="geometry" />
        </mxCell>
        <mxCell id="L6xL-HyGedE4mQC496hB-44" value="SI" style="text;html=1;strokeColor=none;fillColor=none;align=center;verticalAlign=middle;whiteSpace=wrap;rounded=0;fontSize=11;" vertex="1" parent="1">
          <mxGeometry x="2586" y="522" width="40" height="20" as="geometry" />
        </mxCell>
        <mxCell id="L6xL-HyGedE4mQC496hB-45" value="SI" style="text;html=1;strokeColor=none;fillColor=none;align=center;verticalAlign=middle;whiteSpace=wrap;rounded=0;fontSize=11;" vertex="1" parent="1">
          <mxGeometry x="3811" y="522" width="40" height="20" as="geometry" />
        </mxCell>
        <mxCell id="L6xL-HyGedE4mQC496hB-46" value="NO" style="text;html=1;strokeColor=none;fillColor=none;align=center;verticalAlign=middle;whiteSpace=wrap;rounded=0;fontSize=11;" vertex="1" parent="1">
          <mxGeometry x="2429" y="521" width="40" height="20" as="geometry" />
        </mxCell>
        <mxCell id="L6xL-HyGedE4mQC496hB-47" value="NO" style="text;html=1;strokeColor=none;fillColor=none;align=center;verticalAlign=middle;whiteSpace=wrap;rounded=0;fontSize=11;" vertex="1" parent="1">
          <mxGeometry x="2020" y="545" width="40" height="20" as="geometry" />
        </mxCell>
        <mxCell id="L6xL-HyGedE4mQC496hB-48" value="NO" style="text;html=1;strokeColor=none;fillColor=none;align=center;verticalAlign=middle;whiteSpace=wrap;rounded=0;fontSize=11;" vertex="1" parent="1">
          <mxGeometry x="742" y="396" width="40" height="20" as="geometry" />
        </mxCell>
      </root>
    </mxGraphModel>
  </diagram>
</mxfile>
